<svg width="48" height="31" viewBox="0 0 48 31" fill="none" xmlns="http://www.w3.org/2000/svg">
<path d="M4.91602 10.0352H2.85156V1.87305H0.000976562V0.170898H7.77344V1.87305H4.91602V10.0352ZM10.9795 10.0352H8.91504V0.170898H10.9795V10.0352ZM16.9814 10.2061C14.1104 10.2061 12.3125 8.28516 12.3125 5.09961C12.3125 1.9209 14.124 0 16.9814 0C19.3535 0 21.1582 1.50391 21.3154 3.71191H19.3057C19.1143 2.50195 18.1846 1.70898 16.9814 1.70898C15.4229 1.70898 14.418 3.01465 14.418 5.09277C14.418 7.19824 15.4092 8.49707 16.9883 8.49707C18.2119 8.49707 19.0938 7.7793 19.3125 6.61035H21.3223C21.0898 8.81152 19.4014 10.2061 16.9814 10.2061ZM24.665 10.0352H22.6006V0.170898H24.665V4.66895H24.7266L28.4316 0.170898H30.7285L27.0781 4.5459L30.9814 10.0352H28.5137L25.5879 5.91309L24.665 7.02051V10.0352ZM38.3916 8.32617V10.0352H31.8564V0.170898H38.3916V1.87305H33.9209V4.25195H38.1387V5.83789H33.9209V8.32617H38.3916ZM44.3047 10.0352H42.2402V1.87305H39.3896V0.170898H47.1621V1.87305H44.3047V10.0352Z" fill="#7EB8D1"/>
<path d="M5.74316 30.0352H3.67871V21.873H0.828125V20.1709H8.60059V21.873H5.74316V30.0352ZM11.8066 21.7842V24.9287H13.584C14.623 24.9287 15.2314 24.334 15.2314 23.3564C15.2314 22.3994 14.5889 21.7842 13.5635 21.7842H11.8066ZM11.8066 26.4258V30.0352H9.74219V20.1709H13.7822C16.0518 20.1709 17.3506 21.3672 17.3506 23.3154C17.3506 24.5801 16.6943 25.6738 15.5596 26.1182L17.6377 30.0352H15.2998L13.4609 26.4258H11.8066ZM25.1709 30.0352L24.4189 27.6426H20.9531L20.2012 30.0352H18.082L21.5068 20.1709H23.9336L27.3652 30.0352H25.1709ZM22.6621 22.0576L21.3975 26.0977H23.9746L22.71 22.0576H22.6621ZM27.7549 30.0352L30.8857 25.0928V25.0381L27.7754 20.1709H30.2021L32.2939 23.7256H32.3486L34.4609 20.1709H36.7646L33.5381 25.0791V25.127L36.7236 30.0352H34.3721L32.2119 26.583H32.1572L29.9834 30.0352H27.7549ZM37.3525 30.0352L40.4834 25.0928V25.0381L37.373 20.1709H39.7998L41.8916 23.7256H41.9463L44.0586 20.1709H46.3623L43.1357 25.0791V25.127L46.3213 30.0352H43.9697L41.8096 26.583H41.7549L39.5811 30.0352H37.3525Z" fill="white"/>
</svg>
