<svg width="280" height="31" viewBox="0 0 280 31" fill="none" xmlns="http://www.w3.org/2000/svg">
<path d="M14.7451 30.1055H8.55176V5.61914H0V0.512695H23.3174V5.61914H14.7451V30.1055ZM32.9355 30.1055H26.7422V0.512695H32.9355V30.1055ZM50.9414 30.6182C42.3281 30.6182 36.9346 24.8555 36.9346 15.2988C36.9346 5.7627 42.3691 0 50.9414 0C58.0576 0 63.4717 4.51172 63.9434 11.1357H57.9141C57.3398 7.50586 54.5508 5.12695 50.9414 5.12695C46.2656 5.12695 43.251 9.04395 43.251 15.2783C43.251 21.5947 46.2246 25.4912 50.9619 25.4912C54.6328 25.4912 57.2783 23.3379 57.9346 19.8311H63.9639C63.2666 26.4346 58.2012 30.6182 50.9414 30.6182ZM73.9922 30.1055H67.7988V0.512695H73.9922V14.0068H74.1768L85.292 0.512695H92.1826L81.2314 13.6377L92.9414 30.1055H85.5381L76.7607 17.7393L73.9922 21.0615V30.1055ZM115.172 24.9785V30.1055H95.5664V0.512695H115.172V5.61914H101.76V12.7559H114.413V17.5137H101.76V24.9785H115.172ZM132.911 30.1055H126.718V5.61914H118.166V0.512695H141.483V5.61914H132.911V30.1055Z" fill="#4BA2C7"/>
<path d="M158.177 30.1055H151.983V5.61914H143.432V0.512695H166.749V5.61914H158.177V30.1055ZM176.367 5.35254V14.7861H181.699C184.816 14.7861 186.642 13.002 186.642 10.0693C186.642 7.19824 184.714 5.35254 181.638 5.35254H176.367ZM176.367 19.2773V30.1055H170.174V0.512695H182.294C189.103 0.512695 192.999 4.10156 192.999 9.94629C192.999 13.7402 191.03 17.0215 187.626 18.3545L193.86 30.1055H186.847L181.33 19.2773H176.367ZM216.46 30.1055L214.204 22.9277H203.807L201.551 30.1055H195.193L205.468 0.512695H212.748L223.043 30.1055H216.46ZM208.934 6.17285L205.14 18.293H212.871L209.077 6.17285H208.934ZM224.171 30.1055L233.563 15.2783V15.1143L224.232 0.512695H231.513L237.788 11.1768H237.952L244.289 0.512695H251.2L241.521 15.2373V15.3809L251.077 30.1055H244.022L237.542 19.749H237.378L230.856 30.1055H224.171ZM252.964 30.1055L262.356 15.2783V15.1143L253.025 0.512695H260.306L266.581 11.1768H266.745L273.082 0.512695H279.993L270.313 15.2373V15.3809L279.87 30.1055H272.815L266.335 19.749H266.171L259.649 30.1055H252.964Z" fill="white"/>
</svg>
