<svg width="16" height="16" viewBox="0 0 16 16" fill="none" xmlns="http://www.w3.org/2000/svg">
<path d="M8 13.5H10.8333C11.5406 13.5 12.2189 13.219 12.719 12.719C13.219 12.2189 13.5 11.5406 13.5 10.8333V9.16667M8 13.5H5.16667C4.45942 13.5 3.78115 13.219 3.28105 12.719C2.78095 12.2189 2.5 11.5406 2.5 10.8333V8M8 13.5V10C8 9.46957 7.78929 8.96086 7.41421 8.58579C7.03914 8.21071 6.53043 8 6 8H2.5M2.5 8V5.16667C2.5 4.45942 2.78095 3.78115 3.28105 3.28105C3.78115 2.78095 4.45942 2.5 5.16667 2.5H6.83333" stroke="black" stroke-linecap="round" stroke-linejoin="round"/>
<path d="M13.5 6.83301L9.83333 6.83301C9.64933 6.83301 9.48267 6.75834 9.362 6.63767M9.362 6.63767C9.23697 6.51268 9.1667 6.34314 9.16667 6.16634L9.16667 2.49967M9.362 6.63767L9.83333 6.16634L13.5 2.49967" stroke="black" stroke-linecap="round" stroke-linejoin="round"/>
</svg>
