<svg width="24" height="24" viewBox="0 0 24 24" fill="none" xmlns="http://www.w3.org/2000/svg">
<g clip-path="url(#clip0_7313_81)">
<path fill-rule="evenodd" clip-rule="evenodd" d="M18.5935 0.0497593C17.1832 0.213681 15.7996 0.765962 14.6243 1.63409C14.431 1.77692 13.6243 2.53704 12.8317 3.32327L11.3906 4.75278L11.2613 4.63221C11.1903 4.56593 11.0861 4.48803 11.0298 4.4591C10.8872 4.38588 10.5662 4.39343 10.415 4.47359C10.3454 4.51048 10.0251 4.80579 9.70317 5.12984C9.38128 5.45388 9.0961 5.71901 9.06938 5.71901C9.04266 5.71901 8.83144 5.52767 8.59992 5.29376C8.36845 5.0599 8.12208 4.83842 8.05247 4.80157C7.8901 4.7157 7.57734 4.7157 7.41497 4.80162C7.34536 4.83846 6.57891 5.58199 5.71177 6.45396C4.0253 8.14976 3.97674 8.21177 4.07025 8.5504C4.09519 8.64078 4.27575 8.98043 4.47155 9.30527C4.6673 9.63012 4.82747 9.92121 4.82747 9.9522C4.82747 9.98313 3.94017 10.8943 2.85567 11.977C1.77117 13.0597 0.853595 14.0025 0.816611 14.0721C0.737392 14.2212 0.729517 14.4732 0.798424 14.6544C0.825377 14.7254 1.05005 14.9897 1.29769 15.2417L1.74792 15.7L1.2135 16.2568C0.661455 16.8319 0.447517 17.1358 0.249189 17.6269C0.0116267 18.215 0.00103296 18.3581 0.000142336 20.9932C-0.000748289 23.7051 -0.00590455 23.6554 0.29808 23.8723C0.502642 24.0182 0.902299 24.0182 1.10686 23.8723C1.40963 23.6563 1.4056 23.6936 1.4056 21.1009C1.4056 19.5559 1.42345 18.6701 1.45786 18.5065C1.55672 18.0364 1.72074 17.773 2.2546 17.2268L2.7586 16.7112L3.80475 17.745C4.42158 18.3545 4.97597 18.8598 5.1556 18.9762C6.43664 19.8061 8.10253 19.7161 9.29086 18.7527C9.47855 18.6005 10.9117 17.193 12.4757 15.6248C14.8958 13.1982 15.3267 12.7461 15.369 12.5887C15.4116 12.4302 15.3682 12.101 15.0672 10.2982C14.8739 9.14018 14.6925 8.14765 14.6643 8.09257C14.636 8.03749 14.5576 7.93329 14.4902 7.86092L14.3674 7.72943L15.6795 6.42715C17.2506 4.86776 17.5405 4.65335 18.4537 4.37599C18.844 4.25745 18.9316 4.24948 20.0615 4.22998C21.4274 4.2064 21.5298 4.1824 21.7019 3.84523C21.7909 3.67071 21.7962 3.57204 21.7955 2.09979C21.7943 -0.1106 21.8822 -0.00302191 20.086 0.00639996C19.4411 0.00982184 18.7695 0.0293218 18.5935 0.0497593ZM18.9134 1.4374C17.6032 1.59457 16.4581 2.03562 15.4915 2.75543C15.2543 2.93206 14.4789 3.65328 13.7199 4.40318L12.3703 5.73682L12.875 6.24307L13.3797 6.74937L14.7871 5.35052C15.5763 4.56621 16.323 3.86576 16.4866 3.75612C17.456 3.10695 18.4705 2.81276 19.7399 2.81276H20.39V2.10963V1.40651L19.722 1.41354C19.3546 1.41738 18.9907 1.42817 18.9134 1.4374ZM10.1004 6.70802C9.48539 7.32865 9.30872 7.45338 9.04463 7.45338C8.82685 7.45338 8.73694 7.39113 8.2253 6.88596L7.75599 6.42256L6.70556 7.47373L5.65519 8.5249L5.99419 9.09181C6.43181 9.82367 6.4823 9.94728 6.44297 10.1898C6.41395 10.3685 6.26189 10.5333 4.42458 12.3761L2.4376 14.3692L3.26958 15.2002L4.10161 16.0312L6.04655 14.0814C7.1385 12.9867 8.05767 12.1028 8.14238 12.0659C8.22534 12.0298 8.34136 11.9994 8.40019 11.9983C8.45902 11.9973 9.34589 12.4136 10.371 12.9234L12.2348 13.8504L13.0887 12.9966L13.9425 12.1428L13.6637 10.4555L13.3851 8.76818L12.0472 7.43093L10.7093 6.09363L10.1004 6.70802ZM21.1005 7.1577C20.7098 7.35021 19.1896 9.99598 18.9416 10.915C18.8874 11.1158 18.8431 11.3989 18.8431 11.5441C18.8431 12.9279 20.0306 14.1096 21.4212 14.1096C22.8118 14.1096 23.9993 12.9279 23.9993 11.5441C23.9993 11.3989 23.955 11.1158 23.9008 10.915C23.649 9.98168 22.128 7.34267 21.7342 7.15582C21.5282 7.05804 21.3014 7.0587 21.1005 7.1577ZM21.06 9.69181C20.6213 10.4678 20.3504 11.0509 20.2866 11.3566C20.148 12.0201 20.7237 12.7034 21.4212 12.7034C21.9065 12.7034 22.3927 12.3369 22.5294 11.868C22.6281 11.5296 22.5805 11.2737 22.3125 10.7003C22.1057 10.2582 21.4598 9.09434 21.4212 9.09434C21.4083 9.09434 21.2458 9.36321 21.06 9.69181ZM9.09309 14.6971C9.09309 15.6204 9.06075 15.7604 8.80542 15.9425C8.59669 16.0914 8.22155 16.0991 8.03302 15.9583C7.74713 15.7449 7.71216 15.6501 7.68684 15.0198L7.66341 14.4365L6.37434 15.7284L5.08528 17.0202L5.47406 17.3965C6.26663 18.1635 7.09791 18.3316 8.00358 17.9077C8.28666 17.7753 8.46389 17.6157 9.73725 16.3468C10.5173 15.5694 11.1556 14.9218 11.1556 14.9077C11.1556 14.8833 9.16458 13.8753 9.11625 13.8753C9.1035 13.8753 9.09309 14.2451 9.09309 14.6971Z" fill="white"/>
</g>
<defs>
<clipPath id="clip0_7313_81">
<rect width="24" height="24" fill="white"/>
</clipPath>
</defs>
</svg>
