<svg width="16" height="16" viewBox="0 0 16 16" fill="none" xmlns="http://www.w3.org/2000/svg">
<path d="M5.50001 12.5002C5.50001 12.7654 5.39466 13.0197 5.20712 13.2073C5.01958 13.3948 4.76523 13.5002 4.50001 13.5002C4.2348 13.5002 3.98044 13.3948 3.79291 13.2073C3.60537 13.0197 3.50001 12.7654 3.50001 12.5002M5.50001 12.5002C5.50001 12.2349 5.39466 11.9806 5.20712 11.793C5.01958 11.6055 4.76523 11.5002 4.50001 11.5002C4.2348 11.5002 3.98044 11.6055 3.79291 11.793C3.60537 11.9806 3.50001 12.2349 3.50001 12.5002M5.50001 12.5002H9.50001M3.50001 12.5002H2.25001C2.0511 12.5002 1.86033 12.4211 1.71968 12.2805C1.57903 12.1398 1.50001 11.9491 1.50001 11.7502V9.50016M9.50001 12.5002H11M9.50001 12.5002V9.50016M1.50001 9.50016V4.41015C1.49895 4.2276 1.56565 4.05115 1.68721 3.91494C1.80876 3.77873 1.97652 3.69246 2.15801 3.67282C4.38005 3.44239 6.61997 3.44239 8.84201 3.67282C9.21868 3.71149 9.50001 4.03149 9.50001 4.41015V5.04882M1.50001 9.50016H9.50001M13 12.5002C13 12.7654 12.8947 13.0197 12.7071 13.2073C12.5196 13.3948 12.2652 13.5002 12 13.5002C11.7348 13.5002 11.4804 13.3948 11.2929 13.2073C11.1054 13.0197 11 12.7654 11 12.5002M13 12.5002C13 12.2349 12.8947 11.9806 12.7071 11.793C12.5196 11.6055 12.2652 11.5002 12 11.5002C11.7348 11.5002 11.4804 11.6055 11.2929 11.793C11.1054 11.9806 11 12.2349 11 12.5002M13 12.5002H13.75C14.164 12.5002 14.5027 12.1642 14.4767 11.7508C14.3428 9.54924 13.6013 7.42783 12.3347 5.62215C12.2139 5.45315 12.0564 5.31375 11.8739 5.21444C11.6915 5.11513 11.4888 5.0585 11.2813 5.04882H9.50001M9.50001 5.04882V9.50016" stroke="white" stroke-linecap="round" stroke-linejoin="round"/>
</svg>
