<svg width="24" height="24" viewBox="0 0 24 24" fill="none" xmlns="http://www.w3.org/2000/svg">
<path d="M8 18C8.53043 18 9.03914 17.7893 9.41421 17.4142C9.78929 17.0391 10 16.5304 10 16C10 15.4696 9.78929 14.9609 9.41421 14.5858C9.03914 14.2107 8.53043 14 8 14C7.46957 14 6.96086 14.2107 6.58579 14.5858C6.21071 14.9609 6 15.4696 6 16C6 16.5304 6.21071 17.0391 6.58579 17.4142C6.96086 17.7893 7.46957 18 8 18ZM18 18C18.5304 18 19.0391 17.7893 19.4142 17.4142C19.7893 17.0391 20 16.5304 20 16C20 15.4696 19.7893 14.9609 19.4142 14.5858C19.0391 14.2107 18.5304 14 18 14C17.4696 14 16.9609 14.2107 16.5858 14.5858C16.2107 14.9609 16 15.4696 16 16C16 16.5304 16.2107 17.0391 16.5858 17.4142C16.9609 17.7893 17.4696 18 18 18Z" stroke="#181818" stroke-width="1.5" stroke-miterlimit="1.5" stroke-linecap="round" stroke-linejoin="round"/>
<path d="M10.05 16H15V5.6C15 5.44087 14.9368 5.28826 14.8243 5.17574C14.7117 5.06321 14.5591 5 14.4 5H1M5.65 16H3.6C3.52121 16 3.44319 15.9845 3.37039 15.9543C3.29759 15.9242 3.23145 15.88 3.17574 15.8243C3.12002 15.7685 3.07583 15.7024 3.04567 15.6296C3.01552 15.5568 3 15.4788 3 15.4V10.5" stroke="#181818" stroke-width="1.5" stroke-linecap="round"/>
<path d="M2 8H6" stroke="#181818" stroke-width="1.5" stroke-linecap="round" stroke-linejoin="round"/>
<path d="M15 8H20.61C20.726 8.00003 20.8395 8.03367 20.9367 8.09685C21.034 8.16003 21.1108 8.25005 21.158 8.356L22.948 12.384C22.9821 12.4605 22.9998 12.5433 23 12.627V15.4C23 15.4788 22.9845 15.5568 22.9543 15.6296C22.9242 15.7024 22.88 15.7685 22.8243 15.8243C22.7685 15.88 22.7024 15.9242 22.6296 15.9543C22.5568 15.9845 22.4788 16 22.4 16H20.5M15 16H16" stroke="#181818" stroke-width="1.5" stroke-linecap="round"/>
</svg>
