<svg width="32" height="32" viewBox="0 0 32 32" fill="none" xmlns="http://www.w3.org/2000/svg">
<path d="M15.6266 4.76277C15.1616 4.72452 14.7386 4.76577 14.2991 4.97427C14.0966 5.06132 13.9084 5.17866 13.7411 5.32227L13.5229 5.48727L13.5131 5.53377L12.7796 6.30852L8.52262 10.7433L8.52112 10.7448C8.42248 10.8478 8.33592 10.9618 8.26312 11.0845L8.15287 11.2L6.89288 14.0245L6.71063 14.4333L5.48063 16.708C5.46734 16.7314 5.45533 16.7554 5.44463 16.78C5.29463 17.0635 5.19863 17.3605 5.14463 17.665L5.14238 17.6793L4.73438 20.6493L5.12588 21.8253C5.43236 22.7511 5.95208 23.5927 6.64313 24.2808L7.34062 24.9783C7.81589 25.4573 8.36675 25.8549 8.97112 26.155L9.99262 26.662L9.99487 26.6635C10.8691 27.1035 11.8347 27.3312 12.8134 27.328H12.8149L15.2501 27.322V27.328H21.7946C22.4621 27.3168 23.2331 26.977 23.6861 26.4603C23.8457 26.3148 23.9907 26.154 24.1189 25.9803L24.1766 25.9023L26.6651 23.0688C26.9045 22.7965 27.079 22.4735 27.1757 22.1241C27.2723 21.7746 27.2885 21.4079 27.2231 21.0513L27.1354 20.581C27.1261 20.4398 27.1068 20.2995 27.0776 20.161V20.1573L26.7649 18.571L26.7694 18.565L26.0734 15.064C25.9223 14.2791 25.4884 13.5762 24.8539 13.09L22.1314 10.6698L20.3989 7.46502L20.3854 7.44402C20.0696 6.94002 19.7854 6.52602 19.3999 6.20277C19.0054 5.87127 18.5561 5.67552 17.9899 5.49027L17.0546 5.16027L16.6721 5.02602L16.6669 5.02452L16.5994 4.99827C16.5243 4.97026 16.4486 4.94425 16.3721 4.92027C16.1347 4.84414 15.8902 4.79188 15.6424 4.76427L15.6349 4.76352L15.6266 4.76277ZM21.7751 25.828H16.7501V23.4453L23.6464 22.357L25.6714 20.9103L25.7471 21.3198V21.3213C25.7966 21.5958 25.7216 21.871 25.5401 22.0765L23.0081 24.9595L22.9121 25.0893L22.9106 25.0908C22.8351 25.1938 22.7501 25.2868 22.6556 25.3698L22.6204 25.4013L22.5619 25.468L22.5596 25.4695C22.3991 25.6548 22.0361 25.822 21.7751 25.828ZM12.6326 19.4605L16.0001 22.828L7.75012 20.578L8.34262 18.2305C8.44012 17.8105 8.70263 17.458 9.07013 17.233L12.2501 15.328V18.538C12.2501 18.883 12.3851 19.213 12.6326 19.4605ZM12.2501 15.328L10.2964 11.0605L13.8641 7.34577L13.9151 7.29177L12.2501 15.328ZM17.6351 19.408C17.1401 19.183 16.8851 18.6205 17.0426 18.0955L18.6701 12.6745L24.5291 15.0865C24.5591 15.172 24.5831 15.2603 24.6011 15.3513V15.3528L25.1659 18.1953L25.1629 18.1998L25.5341 20.086L23.3539 21.643L22.7599 21.7375L17.6351 19.408ZM18.8876 11.953L19.0001 11.578L19.5191 8.99202L20.9381 11.6155L23.4131 13.816L18.8876 11.953ZM6.54037 21.328H7.65037L15.2501 23.4003V25.822L12.8126 25.828H12.8111C12.0671 25.8308 11.3329 25.6579 10.6684 25.3233L9.63637 24.811L9.63412 24.8103C9.17663 24.5826 8.75979 24.281 8.40037 23.9178L7.70287 23.2203C7.17856 22.6968 6.78381 22.0581 6.55013 21.355L6.54037 21.328ZM16.1351 6.42777L16.5589 6.57627C16.8041 6.66177 17.1386 6.78027 17.4979 6.90702L17.5069 6.91002L17.5159 6.91302C18.0244 7.07952 18.2591 7.20252 18.4361 7.35102C18.5899 7.48002 18.7361 7.65852 18.9559 7.99227L18.2726 11.395L16.3249 17.8788C16.1961 18.306 16.2265 18.7654 16.4104 19.1719C16.5944 19.5784 16.9194 19.9045 17.3254 20.0898L20.4979 21.5313L16.2731 22.039L13.1636 18.9295C13.1117 18.8783 13.0706 18.8172 13.0427 18.7498C13.0147 18.6825 13.0005 18.6102 13.0009 18.5373V15.4038L14.8736 6.36477C14.9479 6.32352 15.0086 6.29877 15.0634 6.28227C15.1609 6.25377 15.2854 6.23952 15.4961 6.25602C15.6439 6.27252 15.7984 6.31152 15.9251 6.35052C15.9866 6.37006 16.0473 6.39157 16.1074 6.41502L16.1141 6.41802L16.1351 6.42777ZM6.80513 17.4175L6.81787 17.3943V17.3928L8.05538 15.1045L9.38062 12.13C9.40362 12.0733 9.43636 12.021 9.47738 11.9755L9.75262 11.6748L11.2886 15.0295L8.68462 16.5895L8.67862 16.5933C8.41324 16.7538 8.18241 16.9655 7.99958 17.2161C7.81675 17.4667 7.68555 17.7511 7.61362 18.0528L7.16587 19.828H6.36038L6.62288 17.9125C6.65229 17.7486 6.70882 17.5907 6.79013 17.4453L6.79387 17.4385L6.80513 17.4175Z" fill="white"/>
</svg>
