<svg width="24" height="24" viewBox="0 0 24 24" fill="none" xmlns="http://www.w3.org/2000/svg">
<g clip-path="url(#clip0_7172_3071)">
<path d="M11.6266 0.762774C11.1616 0.724524 10.7386 0.765775 10.2991 0.974275C10.0966 1.06132 9.90841 1.17866 9.74113 1.32227L9.52287 1.48727L9.51312 1.53377L8.77962 2.30852L4.52262 6.74328L4.52112 6.74478C4.42248 6.84784 4.33592 6.96183 4.26312 7.08453L4.15287 7.20003L2.89288 10.0245L2.71063 10.4333L1.48063 12.708C1.46734 12.7314 1.45533 12.7554 1.44463 12.78C1.29463 13.0635 1.19863 13.3605 1.14463 13.665L1.14238 13.6793L0.734375 16.6493L1.12588 17.8253C1.43236 18.7511 1.95208 19.5927 2.64313 20.2808L3.34062 20.9783C3.81589 21.4573 4.36675 21.8549 4.97112 22.155L5.99262 22.662L5.99487 22.6635C6.86908 23.1035 7.8347 23.3312 8.81338 23.328H8.81487L11.2501 23.322V23.328H17.7946C18.4621 23.3168 19.2331 22.977 19.6861 22.4603C19.8457 22.3148 19.9907 22.154 20.1189 21.9803L20.1766 21.9023L22.6651 19.0688C22.9045 18.7965 23.079 18.4735 23.1757 18.1241C23.2723 17.7746 23.2885 17.4079 23.2231 17.0513L23.1354 16.581C23.1261 16.4398 23.1068 16.2995 23.0776 16.161V16.1573L22.7649 14.571L22.7694 14.565L22.0734 11.064C21.9223 10.2791 21.4884 9.57617 20.8539 9.09002L18.1314 6.66978L16.3989 3.46502L16.3854 3.44402C16.0696 2.94002 15.7854 2.52602 15.3999 2.20277C15.0054 1.87127 14.5561 1.67552 13.9899 1.49027L13.0546 1.16027L12.6721 1.02602L12.6669 1.02452L12.5994 0.998275C12.5243 0.970257 12.4486 0.944247 12.3721 0.920275C12.1347 0.844141 11.8902 0.791882 11.6424 0.764275L11.6349 0.763525L11.6266 0.762774ZM17.7751 21.828H12.7501V19.4453L19.6464 18.357L21.6714 16.9103L21.7471 17.3198V17.3213C21.7966 17.5958 21.7216 17.871 21.5401 18.0765L19.0081 20.9595L18.9121 21.0893L18.9106 21.0908C18.8351 21.1938 18.7501 21.2868 18.6556 21.3698L18.6204 21.4013L18.5619 21.468L18.5596 21.4695C18.3991 21.6548 18.0361 21.822 17.7751 21.828ZM8.63263 15.4605L12.0001 18.828L3.75012 16.578L4.34262 14.2305C4.44012 13.8105 4.70263 13.458 5.07013 13.233L8.25012 11.328V14.538C8.25012 14.883 8.38513 15.213 8.63263 15.4605ZM8.25012 11.328L6.29638 7.06052L9.86413 3.34577L9.91512 3.29177L8.25012 11.328ZM13.6351 15.408C13.1401 15.183 12.8851 14.6205 13.0426 14.0955L14.6701 8.67452L20.5291 11.0865C20.5591 11.172 20.5831 11.2603 20.6011 11.3513V11.3528L21.1659 14.1953L21.1629 14.1998L21.5341 16.086L19.3539 17.643L18.7599 17.7375L13.6351 15.408ZM14.8876 7.95302L15.0001 7.57802L15.5191 4.99202L16.9381 7.61553L19.4131 9.81603L14.8876 7.95302ZM2.54037 17.328H3.65037L11.2501 19.4003V21.822L8.81262 21.828H8.81112C8.0671 21.8308 7.33292 21.6579 6.66838 21.3233L5.63637 20.811L5.63412 20.8103C5.17663 20.5826 4.75979 20.281 4.40037 19.9178L3.70287 19.2203C3.17856 18.6968 2.78381 18.0581 2.55013 17.355L2.54037 17.328ZM12.1351 2.42777L12.5589 2.57627C12.8041 2.66177 13.1386 2.78027 13.4979 2.90702L13.5069 2.91002L13.5159 2.91302C14.0244 3.07952 14.2591 3.20252 14.4361 3.35102C14.5899 3.48002 14.7361 3.65852 14.9559 3.99227L14.2726 7.39502L12.3249 13.8788C12.1961 14.306 12.2265 14.7654 12.4104 15.1719C12.5944 15.5784 12.9194 15.9045 13.3254 16.0898L16.4979 17.5313L12.2731 18.039L9.16363 14.9295C9.11174 14.8783 9.07062 14.8172 9.04267 14.7498C9.01472 14.6825 9.00051 14.6102 9.00088 14.5373V11.4038L10.8736 2.36477C10.9479 2.32352 11.0086 2.29877 11.0634 2.28227C11.1609 2.25377 11.2854 2.23952 11.4961 2.25602C11.6439 2.27252 11.7984 2.31152 11.9251 2.35052C11.9866 2.37006 12.0473 2.39157 12.1074 2.41502L12.1141 2.41802L12.1351 2.42777ZM2.80513 13.4175L2.81787 13.3943V13.3928L4.05538 11.1045L5.38062 8.13002C5.40362 8.07328 5.43636 8.02099 5.47738 7.97552L5.75262 7.67477L7.28863 11.0295L4.68462 12.5895L4.67862 12.5933C4.41324 12.7538 4.18241 12.9655 3.99958 13.2161C3.81675 13.4667 3.68555 13.7511 3.61362 14.0528L3.16587 15.828H2.36038L2.62288 13.9125C2.65229 13.7486 2.70882 13.5907 2.79013 13.4453L2.79387 13.4385L2.80513 13.4175Z" fill="black"/>
</g>
<defs>
<clipPath id="clip0_7172_3071">
<rect width="24" height="24" fill="white"/>
</clipPath>
</defs>
</svg>
