<svg width="16" height="16" viewBox="0 0 16 16" fill="none" xmlns="http://www.w3.org/2000/svg">
<path d="M8.00065 1.3335C11.6673 1.3335 14.6673 4.3335 14.6673 8.00016C14.6673 11.6668 11.6673 14.6668 8.00065 14.6668C4.33398 14.6668 1.33398 11.6668 1.33398 8.00016C1.33398 4.3335 4.33398 1.3335 8.00065 1.3335ZM8.00065 2.66683C6.73398 2.66683 5.60065 3.06683 4.73398 3.80016L12.2007 11.2668C12.8673 10.3335 13.334 9.20016 13.334 8.00016C13.334 5.06683 10.934 2.66683 8.00065 2.66683ZM11.2673 12.2002L3.80065 4.7335C3.06732 5.60016 2.66732 6.7335 2.66732 8.00016C2.66732 10.9335 5.06732 13.3335 8.00065 13.3335C9.26732 13.3335 10.4007 12.9335 11.2673 12.2002Z" fill="#FF0000"/>
</svg>
