<svg width="24" height="24" viewBox="0 0 24 24" fill="none" xmlns="http://www.w3.org/2000/svg">
<path fill-rule="evenodd" clip-rule="evenodd" d="M2.35521 11.5995C2.46152 11.4811 2.61049 11.4098 2.76936 11.4013C2.92824 11.3927 3.08401 11.4476 3.20241 11.5539L7.20201 15.1539C7.26063 15.2066 7.30829 15.2703 7.34228 15.3415C7.37627 15.4126 7.39591 15.4897 7.40009 15.5685C7.40427 15.6472 7.3929 15.726 7.36664 15.8003C7.34037 15.8746 7.29972 15.9431 7.24701 16.0017C7.19429 16.0603 7.13055 16.108 7.05942 16.142C6.98828 16.176 6.91115 16.1956 6.83243 16.1998C6.7537 16.204 6.67492 16.1926 6.60059 16.1663C6.52626 16.1401 6.45783 16.0994 6.39921 16.0467L2.39961 12.4467C2.2814 12.3402 2.21032 12.1912 2.20199 12.0323C2.19367 11.8734 2.24878 11.7177 2.35521 11.5995Z" fill="white"/>
<path fill-rule="evenodd" clip-rule="evenodd" d="M7.24595 7.99988C7.35238 8.11813 7.40749 8.2738 7.39916 8.43267C7.39084 8.59154 7.31976 8.74061 7.20155 8.84708L3.20195 12.4471C3.08356 12.5537 2.92766 12.6089 2.76855 12.6006C2.60945 12.5923 2.46017 12.5211 2.35355 12.4027C2.24693 12.2843 2.19171 12.1284 2.20004 11.9693C2.20837 11.8102 2.27956 11.6609 2.39795 11.5543L6.39875 7.95428C6.51715 7.848 6.67292 7.7931 6.83179 7.80165C6.99067 7.8102 7.13964 7.8815 7.24595 7.99988ZM21.646 11.5999C21.7524 11.7181 21.8075 11.8738 21.7992 12.0327C21.7908 12.1915 21.7198 12.3406 21.6016 12.4471L17.602 16.0471C17.4836 16.1537 17.3277 16.2089 17.1686 16.2006C17.0094 16.1923 16.8602 16.1211 16.7536 16.0027C16.6469 15.8843 16.5917 15.7284 16.6 15.5693C16.6084 15.4102 16.6796 15.2609 16.798 15.1543L20.7988 11.5543C20.9172 11.448 21.0729 11.3931 21.2318 11.4016C21.3907 11.4102 21.5396 11.4815 21.646 11.5999Z" fill="white"/>
<path fill-rule="evenodd" clip-rule="evenodd" d="M16.7548 7.99961C16.8611 7.88124 17.0101 7.80993 17.169 7.80138C17.3279 7.79283 17.4836 7.84773 17.602 7.95401L21.6016 11.554C21.6603 11.6067 21.7079 11.6705 21.7419 11.7416C21.7759 11.8127 21.7955 11.8899 21.7997 11.9686C21.8039 12.0473 21.7925 12.1261 21.7663 12.2004C21.74 12.2748 21.6994 12.3432 21.6466 12.4018C21.5939 12.4604 21.5302 12.5081 21.4591 12.5421C21.3879 12.5761 21.3108 12.5957 21.2321 12.5999C21.1533 12.6041 21.0746 12.5927 21.0002 12.5664C20.9259 12.5402 20.8575 12.4995 20.7988 12.4468L16.7992 8.84681C16.681 8.74034 16.61 8.59128 16.6016 8.4324C16.5933 8.27353 16.6484 8.11786 16.7548 7.99961ZM13.9588 4.82201C14.1122 4.86409 14.2426 4.96533 14.3213 5.10349C14.4001 5.24164 14.4208 5.40541 14.3788 5.55881L10.7788 18.7588C10.7329 18.9077 10.6309 19.0329 10.4943 19.1079C10.3577 19.183 10.1973 19.2019 10.047 19.1607C9.89669 19.1196 9.76831 19.0216 9.68899 18.8874C9.60968 18.7533 9.58567 18.5935 9.62204 18.442L13.222 5.24201C13.2641 5.08865 13.3654 4.95828 13.5035 4.87952C13.6417 4.80077 13.8054 4.78008 13.9588 4.82201Z" fill="white"/>
</svg>
