<svg width="67" height="67" viewBox="0 0 67 67" fill="none" xmlns="http://www.w3.org/2000/svg">
<g clip-path="url(#clip0_5139_81945)">
<path d="M0.0078125 12.5625C0.0078125 10.3413 0.890176 8.2111 2.46079 6.64048C4.03141 5.06986 6.16162 4.1875 8.38281 4.1875H58.6328C60.854 4.1875 62.9842 5.06986 64.5548 6.64048C66.1255 8.2111 67.0078 10.3413 67.0078 12.5625V54.4375C67.0078 56.6587 66.1255 58.7889 64.5548 60.3595C62.9842 61.9301 60.854 62.8125 58.6328 62.8125H8.38281C6.16162 62.8125 4.03141 61.9301 2.46079 60.3595C0.890176 58.7889 0.0078125 56.6587 0.0078125 54.4375V12.5625ZM4.19531 50.25V54.4375C4.19531 55.5481 4.63649 56.6132 5.4218 57.3985C6.20711 58.1838 7.27222 58.625 8.38281 58.625H58.6328C59.7434 58.625 60.8085 58.1838 61.5938 57.3985C62.3791 56.6132 62.8203 55.5481 62.8203 54.4375V39.7812L47.0041 31.6282C46.6114 31.4315 46.1668 31.3632 45.7332 31.4331C45.2996 31.503 44.8989 31.7075 44.5879 32.0176L29.0523 47.5532L17.9136 40.133C17.5114 39.8652 17.029 39.7448 16.5482 39.7921C16.0674 39.8395 15.6177 40.0516 15.2754 40.3926L4.19531 50.25ZM25.1328 23.0312C25.1328 21.3654 24.471 19.7677 23.2931 18.5897C22.1151 17.4118 20.5175 16.75 18.8516 16.75C17.1857 16.75 15.588 17.4118 14.41 18.5897C13.2321 19.7677 12.5703 21.3654 12.5703 23.0312C12.5703 24.6971 13.2321 26.2948 14.41 27.4728C15.588 28.6507 17.1857 29.3125 18.8516 29.3125C20.5175 29.3125 22.1151 28.6507 23.2931 27.4728C24.471 26.2948 25.1328 24.6971 25.1328 23.0312Z" fill="#D2D2D2"/>
</g>
<defs>
<clipPath id="clip0_5139_81945">
<rect width="67" height="67" fill="white"/>
</clipPath>
</defs>
</svg>
