<svg width="16" height="16" viewBox="0 0 16 16" fill="none" xmlns="http://www.w3.org/2000/svg">
<path d="M8.00065 7.99944L13.3827 4.91611M8.00065 7.99944V14.1661M2.61798 4.91611L5.30932 6.45811L8.00065 7.99944M13.3827 4.91611C13.1959 4.59549 12.928 4.3297 12.606 4.14544L10.834 3.13011M13.3827 4.91611C13.566 5.23077 13.6673 5.59277 13.6673 5.96944V10.0294C13.6671 10.4001 13.5688 10.7641 13.3824 11.0844C13.196 11.4048 12.9281 11.6701 12.606 11.8534L9.06198 13.8841C8.73888 14.0691 8.37298 14.1663 8.00065 14.1661M10.834 3.13011L9.06198 2.11477C8.73895 1.92951 8.37304 1.83203 8.00065 1.83203C7.62826 1.83203 7.26235 1.92951 6.93932 2.11477L3.39532 4.14544C3.07302 4.3296 2.80492 4.59541 2.61798 4.91611C2.43188 5.23595 2.33389 5.5994 2.33398 5.96944V10.0294C2.33398 10.7828 2.73865 11.4774 3.39532 11.8534L6.93932 13.8841C7.26243 14.0691 7.62833 14.1663 8.00065 14.1661M5.30932 6.45811L10.834 3.13011" stroke="white" stroke-linejoin="round"/>
</svg>
