<svg width="16" height="16" viewBox="0 0 16 16" fill="none" xmlns="http://www.w3.org/2000/svg">
<g clip-path="url(#clip0_5001_45749)">
<path d="M14.0007 5.00065L11.334 6.33398M11.334 6.33398L11.0007 6.50065L8.00065 8.00065M11.334 6.33398V8.66732M11.334 6.33398L5.00065 3.00065M8.00065 8.00065L2.00065 5.00065M8.00065 8.00065V14.334M10.386 2.25532L11.7193 2.95532C13.1533 3.70798 13.8707 4.08398 14.2693 4.76065C14.6673 5.43665 14.6673 6.27865 14.6673 7.96198V8.03998C14.6673 9.72265 14.6673 10.5647 14.2693 11.2407C13.8707 11.9173 13.1533 12.294 11.7193 13.0467L10.386 13.746C9.21532 14.36 8.62998 14.6673 8.00065 14.6673C7.37132 14.6673 6.78598 14.3607 5.61532 13.746L4.28198 13.046C2.84798 12.2933 2.13065 11.9173 1.73198 11.2407C1.33398 10.5647 1.33398 9.72265 1.33398 8.04065V7.96265C1.33398 6.27932 1.33398 5.43732 1.73198 4.76132C2.13065 4.08465 2.84798 3.70798 4.28198 2.95598L5.61532 2.25598C6.78598 1.64132 7.37132 1.33398 8.00065 1.33398C8.62998 1.33398 9.21532 1.64065 10.386 2.25532Z" stroke="white" stroke-linecap="round"/>
</g>
<defs>
<clipPath id="clip0_5001_45749">
<rect width="16" height="16" fill="white"/>
</clipPath>
</defs>
</svg>
