<svg width="16" height="16" viewBox="0 0 16 16" fill="none" xmlns="http://www.w3.org/2000/svg">
<g clip-path="url(#clip0_8294_2078)">
<path d="M9.22827 5.93255L11.2057 3.95508L13.1832 5.93255" stroke="#1F2020" stroke-width="0.988735" stroke-linecap="round" stroke-linejoin="round"/>
<path d="M3.2959 3.62548C3.2959 3.53807 3.33062 3.45424 3.39243 3.39243C3.45424 3.33062 3.53807 3.2959 3.62548 3.2959H6.2621C6.34951 3.2959 6.43334 3.33062 6.49515 3.39243C6.55696 3.45424 6.59168 3.53807 6.59168 3.62548V6.2621C6.59168 6.34951 6.55696 6.43334 6.49515 6.49515C6.43334 6.55696 6.34951 6.59168 6.2621 6.59168H3.62548C3.53807 6.59168 3.45424 6.55696 3.39243 6.49515C3.33062 6.43334 3.2959 6.34951 3.2959 6.2621V3.62548Z" stroke="#1F2020" stroke-width="0.988735" stroke-linecap="round" stroke-linejoin="round"/>
<path d="M3.2959 9.55761C3.2959 9.4702 3.33062 9.38637 3.39243 9.32456C3.45424 9.26275 3.53807 9.22803 3.62548 9.22803H6.2621C6.34951 9.22803 6.43334 9.26275 6.49515 9.32456C6.55696 9.38637 6.59168 9.4702 6.59168 9.55761V12.1942C6.59168 12.2816 6.55696 12.3655 6.49515 12.4273C6.43334 12.4891 6.34951 12.5238 6.2621 12.5238H3.62548C3.53807 12.5238 3.45424 12.4891 3.39243 12.4273C3.33062 12.3655 3.2959 12.2816 3.2959 12.1942V9.55761Z" stroke="#1F2020" stroke-width="0.988735" stroke-linecap="round" stroke-linejoin="round"/>
<path d="M11.2056 3.95508V11.865" stroke="#1F2020" stroke-width="0.988735" stroke-linecap="round" stroke-linejoin="round"/>
</g>
<defs>
<clipPath id="clip0_8294_2078">
<rect width="15.8198" height="15.8198" fill="white"/>
</clipPath>
</defs>
</svg>
