<svg width="16" height="16" viewBox="0 0 16 16" fill="none" xmlns="http://www.w3.org/2000/svg">
<path d="M0.5 4.99935H7L7.5 5.99935H1L0.5 4.99935ZM1.16667 6.99935H7.66667L8.16667 7.99935H1.66667L1.16667 6.99935ZM12 12.3327C12.5533 12.3327 13 11.886 13 11.3327C13 10.7793 12.5533 10.3327 12 10.3327C11.4467 10.3327 11 10.7793 11 11.3327C11 11.886 11.4467 12.3327 12 12.3327ZM13 6.33268H11.3333V7.99935H14.3067L13 6.33268ZM5.33333 12.3327C5.88667 12.3327 6.33333 11.886 6.33333 11.3327C6.33333 10.7793 5.88667 10.3327 5.33333 10.3327C4.78 10.3327 4.33333 10.7793 4.33333 11.3327C4.33333 11.886 4.78 12.3327 5.33333 12.3327ZM13.3333 5.33268L15.3333 7.99935V11.3327H14C14 12.4393 13.1067 13.3327 12 13.3327C10.8933 13.3327 10 12.4393 10 11.3327H7.33333C7.33333 12.4393 6.43333 13.3327 5.33333 13.3327C4.22667 13.3327 3.33333 12.4393 3.33333 11.3327H2V8.99935H3.33333V9.99935H3.84C4.20667 9.59268 4.74 9.33268 5.33333 9.33268C5.92667 9.33268 6.46 9.59268 6.82667 9.99935H10V3.99935H2C2 3.25935 2.59333 2.66602 3.33333 2.66602H11.3333V5.33268H13.3333Z" fill="white"/>
</svg>
