<svg width="30" height="30" viewBox="0 0 30 30" fill="none" xmlns="http://www.w3.org/2000/svg">
<path d="M26.25 24.6875C26.25 22.075 24.1625 18.3525 21.25 17.5288M18.75 24.6875C18.75 21.3738 15.3925 17.1875 11.25 17.1875C7.1075 17.1875 3.75 21.3738 3.75 24.6875M18.75 12.8125C19.7446 12.8125 20.6984 12.4174 21.4017 11.7142C22.1049 11.0109 22.5 10.0571 22.5 9.0625C22.5 8.06794 22.1049 7.11411 21.4017 6.41085C20.6984 5.70759 19.7446 5.3125 18.75 5.3125M15 9.0625C15 10.0571 14.6049 11.0109 13.9017 11.7142C13.1984 12.4174 12.2446 12.8125 11.25 12.8125C10.2554 12.8125 9.30161 12.4174 8.59835 11.7142C7.89509 11.0109 7.5 10.0571 7.5 9.0625C7.5 8.06794 7.89509 7.11411 8.59835 6.41085C9.30161 5.70759 10.2554 5.3125 11.25 5.3125C12.2446 5.3125 13.1984 5.70759 13.9017 6.41085C14.6049 7.11411 15 8.06794 15 9.0625Z" stroke="#181818" stroke-width="1.5" stroke-linecap="round" stroke-linejoin="round"/>
</svg>
