<svg width="16" height="16" viewBox="0 0 16 16" fill="none" xmlns="http://www.w3.org/2000/svg">
<g clip-path="url(#clip0_6416_66559)">
<path d="M5.33398 4.66667C5.33398 5.37391 5.61494 6.05219 6.11503 6.55229C6.61513 7.05238 7.29341 7.33333 8.00065 7.33333C8.7079 7.33333 9.38617 7.05238 9.88627 6.55229C10.3864 6.05219 10.6673 5.37391 10.6673 4.66667C10.6673 3.95942 10.3864 3.28115 9.88627 2.78105C9.38617 2.28095 8.7079 2 8.00065 2C7.29341 2 6.61513 2.28095 6.11503 2.78105C5.61494 3.28115 5.33398 3.95942 5.33398 4.66667Z" stroke="#1C3B73" stroke-linecap="round" stroke-linejoin="round"/>
<path d="M10.666 12.6665H14.666" stroke="#1C3B73" stroke-linecap="round" stroke-linejoin="round"/>
<path d="M12.666 10.6665V14.6665" stroke="#1C3B73" stroke-linecap="round" stroke-linejoin="round"/>
<path d="M4 14V12.6667C4 11.9594 4.28095 11.2811 4.78105 10.781C5.28115 10.281 5.95942 10 6.66667 10H9.33333" stroke="#1C3B73" stroke-linecap="round" stroke-linejoin="round"/>
</g>
<defs>
<clipPath id="clip0_6416_66559">
<rect width="16" height="16" fill="white"/>
</clipPath>
</defs>
</svg>
