<svg width="18" height="18" viewBox="0 0 18 18" fill="none" xmlns="http://www.w3.org/2000/svg">
<path fill-rule="evenodd" clip-rule="evenodd" d="M16.3116 9.00062L16.7785 8.76662V8.76437L16.7751 8.761L16.7684 8.7475L16.7448 8.7025L16.6548 8.5405C16.5449 8.35106 16.4282 8.16568 16.3049 7.98475C15.8933 7.38057 15.4201 6.8207 14.893 6.31412C13.6263 5.09912 11.6766 3.85938 8.99914 3.85938C6.32389 3.85938 4.37314 5.098 3.10639 6.31412C2.57928 6.8207 2.10613 7.38057 1.69452 7.98475C1.5275 8.23118 1.37281 8.48574 1.23102 8.7475L1.22427 8.761L1.22202 8.76437V8.7655C1.22202 8.7655 1.22089 8.76662 1.68777 9.00062L1.22089 8.7655C1.18479 8.83842 1.16602 8.91869 1.16602 9.00006C1.16602 9.08143 1.18479 9.1617 1.22089 9.23462L1.21977 9.23687L1.22314 9.24025L1.22989 9.25375C1.26497 9.32404 1.30249 9.39308 1.34239 9.46075C1.82681 10.2791 2.41941 11.0283 3.10414 11.6882C4.37202 12.9032 6.32164 14.1407 8.99914 14.1407C11.6755 14.1407 13.6263 12.9032 14.8941 11.6871C15.4203 11.1799 15.893 10.6201 16.3049 10.0165C16.4626 9.78424 16.6094 9.54473 16.7448 9.29875L16.7684 9.25375L16.7751 9.24025L16.7774 9.23687V9.23575C16.7774 9.23575 16.7785 9.23462 16.3116 9.00062ZM16.3116 9.00062L16.7785 9.23575C16.8146 9.16283 16.8334 9.08256 16.8334 9.00119C16.8334 8.91982 16.8146 8.83955 16.7785 8.76662L16.3116 9.00062ZM8.93164 7.27263C8.47335 7.27263 8.03382 7.45468 7.70976 7.77874C7.3857 8.10281 7.20364 8.54233 7.20364 9.00062C7.20364 9.45892 7.3857 9.89844 7.70976 10.2225C8.03382 10.5466 8.47335 10.7286 8.93164 10.7286C9.38994 10.7286 9.82946 10.5466 10.1535 10.2225C10.4776 9.89844 10.6596 9.45892 10.6596 9.00062C10.6596 8.54233 10.4776 8.10281 10.1535 7.77874C9.82946 7.45468 9.38994 7.27263 8.93164 7.27263ZM6.16189 9.00062C6.16189 8.26544 6.45394 7.56038 6.97379 7.04052C7.49364 6.52067 8.19871 6.22862 8.93389 6.22862C9.66907 6.22862 10.3741 6.52067 10.894 7.04052C11.4138 7.56038 11.7059 8.26544 11.7059 9.00062C11.7059 9.7358 11.4138 10.4409 10.894 10.9607C10.3741 11.4806 9.66907 11.7726 8.93389 11.7726C8.19871 11.7726 7.49364 11.4806 6.97379 10.9607C6.45394 10.4409 6.16189 9.7358 6.16189 9.00062Z" fill="#707070"/>
</svg>
